<mxfile host="app.diagrams.net" modified="2021-11-15T01:11:43.324Z" agent="5.0 (Windows NT 10.0; Win64; x64) AppleWebKit/537.36 (KHTML, like Gecko) Chrome/95.0.4638.69 Safari/537.36" etag="KP-RmrwRU4SzEkNIX2lb" version="15.7.3" type="github">
  <diagram id="UUMaen8UAsSaZx9NewCR" name="Page-1">
    <mxGraphModel dx="920" dy="435" grid="1" gridSize="10" guides="1" tooltips="1" connect="1" arrows="1" fold="1" page="1" pageScale="1" pageWidth="827" pageHeight="1169" math="0" shadow="0">
      <root>
        <mxCell id="0" />
        <mxCell id="1" parent="0" />
        <mxCell id="gFnjkNJQwceTmcIACgji-3" value="" style="edgeStyle=orthogonalEdgeStyle;rounded=0;orthogonalLoop=1;jettySize=auto;html=1;" edge="1" parent="1" source="gFnjkNJQwceTmcIACgji-1" target="gFnjkNJQwceTmcIACgji-2">
          <mxGeometry relative="1" as="geometry" />
        </mxCell>
        <mxCell id="gFnjkNJQwceTmcIACgji-1" value="" style="rounded=1;whiteSpace=wrap;html=1;" vertex="1" parent="1">
          <mxGeometry x="190" y="480" width="100" height="60" as="geometry" />
        </mxCell>
        <mxCell id="gFnjkNJQwceTmcIACgji-2" value="" style="whiteSpace=wrap;html=1;rounded=1;" vertex="1" parent="1">
          <mxGeometry x="360" y="480" width="120" height="60" as="geometry" />
        </mxCell>
      </root>
    </mxGraphModel>
  </diagram>
</mxfile>
